<?xml version="1.0" encoding="utf-8"?>
<!-- Generator: Adobe Illustrator 16.0.0, SVG Export Plug-In . SVG Version: 6.00 Build 0)  -->
<!DOCTYPE svg PUBLIC "-//W3C//DTD SVG 1.1//EN" "http://www.w3.org/Graphics/SVG/1.1/DTD/svg11.dtd">
<svg version="1.1" id="Calque_1" xmlns="http://www.w3.org/2000/svg" xmlns:xlink="http://www.w3.org/1999/xlink" x="0px" y="0px"
	 width="213.333px" height="200px" viewBox="0 0 213.333 200" enable-background="new 0 0 213.333 200" xml:space="preserve">
<g>
	<path fill="#FFFFFF" d="M84.919,142.024h-0.022c-3.541,0-5.715-1.516-6.918-2.787c-2.979-3.145-2.824-7.646-2.793-8.148
		l-0.004-7.754l-0.974-0.018c-10.002,0-18.209-8.211-18.209-18.301v-28.74c0-10.09,8.209-18.301,18.297-18.301h64.74
		c10.09,0,18.297,8.211,18.297,18.301v28.742c0,10.152-8.207,18.406-18.297,18.406h-30.914l-12.269,12.589
		C94.054,137.96,90.311,142.014,84.919,142.024 M74.294,65.409c-5.99,0-10.862,4.877-10.862,10.867v28.742
		c0,5.99,4.872,10.867,10.862,10.867l4.687,0.107c2.021,0.047,3.631,1.697,3.631,3.715v11.584c-0.024,0.76,0.14,2.191,0.774,2.847
		c0.115,0.125,0.435,0.454,1.511,0.454v3.717l0.008-3.717c2.146-0.006,4.16-2.182,5.488-3.623l0.692-0.734l12.815-13.123
		c0.699-0.717,1.658-1.119,2.66-1.119h32.476c5.99,0,10.861-4.92,10.861-10.975V76.276c0-5.99-4.871-10.867-10.861-10.867H74.294z"
		/>
	<path fill="#FFFFFF" d="M126.022,88.14H82.047c-2.049,0-3.713-1.664-3.713-3.717c0-2.051,1.664-3.717,3.713-3.717h43.976
		c2.053,0,3.717,1.666,3.717,3.717C129.739,86.476,128.077,88.14,126.022,88.14"/>
	<path fill="#FFFFFF" d="M106.667,104.245H82.05c-2.051,0-3.717-1.666-3.717-3.717s1.666-3.717,3.717-3.717h24.617
		c2.049,0,3.715,1.666,3.715,3.717S108.716,104.245,106.667,104.245"/>
</g>
</svg>
