<?xml version="1.0" encoding="utf-8"?>
<!-- Generator: Adobe Illustrator 16.0.0, SVG Export Plug-In . SVG Version: 6.00 Build 0)  -->
<!DOCTYPE svg PUBLIC "-//W3C//DTD SVG 1.1//EN" "http://www.w3.org/Graphics/SVG/1.1/DTD/svg11.dtd">
<svg version="1.1" id="Calque_1" xmlns="http://www.w3.org/2000/svg" xmlns:xlink="http://www.w3.org/1999/xlink" x="0px" y="0px"
	 width="213.333px" height="200px" viewBox="0 0 213.333 200" enable-background="new 0 0 213.333 200" xml:space="preserve">
<g>
	<path fill="#FFFFFF" d="M74.565,112.292v4.943v4.191c0,0.922,0.642,1.676,1.424,1.676c0.783,0,1.425-0.754,1.425-1.676v-4.191
		v-4.943v-3.938h-2.849V112.292z"/>
	<path fill="#FFFFFF" d="M80.743,117.235L80.743,117.235v4.19c0,0.922,0.642,1.677,1.425,1.677c0.782,0,1.424-0.755,1.424-1.677
		v-4.19l0,0v-8.883h-2.849V117.235z"/>
	<path fill="#FFFFFF" d="M117.256,90.075c-4.105,0-7.445,3.34-7.445,7.443v10.595h1.472h1.409v9.122h0.029v4.19
		c0,0.922,0.641,1.676,1.424,1.676s1.424-0.754,1.424-1.676v-4.19h0.005v-9.122h3.368v9.122h0.014v4.19
		c0,0.922,0.641,1.676,1.424,1.676s1.424-0.754,1.424-1.676v-4.19h0.018v-9.122h0.002h1.409h1.472V97.519
		C124.703,93.415,121.361,90.075,117.256,90.075"/>
	<path fill="#FFFFFF" d="M114.064,81.805l1.535-1.184c1.373,1.188,3.479,2.179,5.168,2.322c0.016,0.128,0.039,0.252,0.039,0.383
		c0,1.958-1.592,3.55-3.549,3.55s-3.552-1.592-3.552-3.55C113.706,82.78,113.842,82.269,114.064,81.805 M117.258,89.758
		c3.545,0,6.43-2.884,6.43-6.431c0-3.545-2.885-6.43-6.43-6.43c-3.547,0-6.433,2.885-6.433,6.43
		C110.825,86.874,113.711,89.758,117.258,89.758"/>
	<path fill="#FFFFFF" d="M129.223,110.331l1.881-7.261l0.059-6.438c0-1.841,1.496-3.339,3.338-3.339c1.843,0,3.34,1.498,3.34,3.339
		l0.003,5.947l1.938,7.752H129.223z M141.654,95.159l4.012,3.039v4.115h-4.012V95.159z M145.666,92.663v1.948l-2.57-1.948H145.666z
		 M138.797,92.19c-1.115-1.077-2.629-1.744-4.297-1.744c-3.411,0-6.187,2.775-6.187,6.186l0.003,5.779l-2.777,10.769h4.447v4.055
		h0.022v4.191c0,0.923,0.636,1.677,1.413,1.677s1.412-0.754,1.412-1.677v-4.191v-2.093v-1.962h3.33v1.8
		c-0.004,0.054-0.014,0.105-0.014,0.162v6.284c0,0.923,0.635,1.677,1.412,1.677s1.412-0.754,1.412-1.677v-4.19h0.038v-4.056h4.446
		l-2.075-8.009h7.144V89.805h-9.73V92.19z"/>
	<path fill="#FFFFFF" d="M145.167,88.604c-0.424-0.685-1.304-3.243-2.95-3.193c-1.5,0.044-1.605,1.369-1.605,1.605
		C140.611,89.363,143.984,89.286,145.167,88.604"/>
	<path fill="#FFFFFF" d="M131.004,83.649c0.682-0.265,1.629-0.715,2.513-1.411c0.905,1.303,2.256,2.619,3.975,3.351
		c-0.616,1.012-1.72,1.696-2.991,1.696c-1.935,0-3.511-1.576-3.511-3.511C130.99,83.731,131.002,83.692,131.004,83.649
		 M134.502,90.133c3.506,0,6.357-2.853,6.357-6.357c0-3.506-2.852-6.358-6.357-6.358s-6.358,2.853-6.358,6.358
		C128.143,87.28,130.996,90.133,134.502,90.133"/>
	<path fill="#FFFFFF" d="M92.623,87.729c0-0.24-0.107-1.577-1.625-1.625c-1.666-0.052-2.556,2.537-2.983,3.229
		C89.211,90.025,92.623,90.103,92.623,87.729"/>
	<path fill="#FFFFFF" d="M104.229,96.331c0-3.45-2.806-6.257-6.257-6.257s-6.258,2.807-6.258,6.257l0.002,5.845l-2.808,10.892h4.498
		v4.167h0.034v4.191c0,0.922,0.641,1.677,1.424,1.677s1.424-0.755,1.424-1.677v-6.285c0-0.006-0.002-0.012-0.002-0.019v-2.055h3.368
		v4.167h0.021v4.191c0,0.922,0.641,1.677,1.424,1.677s1.424-0.755,1.424-1.677v-4.191h0.012v-4.167h4.498l-2.804-10.821V96.331z"/>
	<path fill="#FFFFFF" d="M94.436,83.2c0.914-0.354,2.301-1.035,3.373-2.188c0.896,0.825,2.186,1.573,3.649,1.664
		c0.039,0.212,0.063,0.428,0.063,0.65c0,1.958-1.592,3.55-3.549,3.55c-1.959,0-3.55-1.593-3.55-3.55
		C94.423,83.284,94.434,83.243,94.436,83.2 M97.973,89.758c3.545,0,6.431-2.885,6.431-6.431c0-3.545-2.886-6.429-6.431-6.429
		s-6.432,2.884-6.432,6.429C91.541,86.873,94.428,89.758,97.973,89.758"/>
	<path fill="#FFFFFF" d="M71.676,103.425h-4.012v-4.116l4.012-3.039V103.425z M67.664,93.774h2.571l-2.571,1.948V93.774z
		 M79.078,90.446c-1.715,0-3.291,0.594-4.543,1.581v-1.112h-9.73v15.368h6.91v2.069h2.849V97.809c0-2.487,2.026-4.515,4.515-4.515
		s4.514,2.027,4.514,4.515v10.544h2.848V97.809C86.439,93.749,83.138,90.446,79.078,90.446"/>
	<path fill="#FFFFFF" d="M81.096,81.452l0.901,0.376c0.373,0.557,0.593,1.226,0.593,1.946c0,1.935-1.574,3.511-3.511,3.511
		c-1.293,0-2.413-0.712-3.022-1.756C77.881,84.891,79.926,83.171,81.096,81.452 M79.079,90.133c3.507,0,6.358-2.853,6.358-6.357
		c0-3.506-2.852-6.358-6.358-6.358s-6.358,2.853-6.358,6.358C72.719,87.28,75.572,90.133,79.079,90.133"/>
</g>
</svg>
