<?xml version="1.0" encoding="utf-8"?>
<!-- Generator: Adobe Illustrator 16.0.0, SVG Export Plug-In . SVG Version: 6.00 Build 0)  -->
<!DOCTYPE svg PUBLIC "-//W3C//DTD SVG 1.1//EN" "http://www.w3.org/Graphics/SVG/1.1/DTD/svg11.dtd">
<svg version="1.1" id="Calque_1" xmlns="http://www.w3.org/2000/svg" xmlns:xlink="http://www.w3.org/1999/xlink" x="0px" y="0px"
	 width="213.333px" height="200px" viewBox="0 0 213.333 200" enable-background="new 0 0 213.333 200" xml:space="preserve">
<g>
	<path fill="#FFFFFF" d="M104.629,94.287c0,1.816-1.816,1.816-1.816,1.816H91.938c-1.811,0-1.811-1.816-1.811-1.816V83.418
		c0-1.812,1.811-1.812,1.811-1.812h10.875c1.816,0,1.816,1.812,1.816,1.812V94.287z M104.629,119.512
		c0,1.817-1.816,1.817-1.816,1.817H91.938c-1.811,0-1.811-1.817-1.811-1.817v-10.875c0-1.815,1.811-1.815,1.811-1.815h10.875
		c1.816,0,1.816,1.815,1.816,1.815V119.512z M78.42,94.287c0,1.816-1.816,1.816-1.816,1.816H65.728
		c-1.815,0-1.815-1.816-1.815-1.816V83.418c0-1.812,1.815-1.812,1.815-1.812h10.876c1.816,0,1.816,1.812,1.816,1.812V94.287z
		 M52.209,94.287c0,1.816-1.815,1.816-1.815,1.816h-10.87c-1.822,0-1.822-1.816-1.822-1.816V83.418c0-1.812,1.822-1.812,1.822-1.812
		h10.87c1.815,0,1.815,1.812,1.815,1.812V94.287z M52.209,119.512c0,1.817-1.815,1.817-1.815,1.817h-10.87
		c-1.822,0-1.822-1.817-1.822-1.817v-10.875c0-1.815,1.822-1.815,1.822-1.815h10.87c1.815,0,1.815,1.815,1.815,1.815V119.512z
		 M111.045,65.546h-79.76c0,0-3.621,0-3.621,3.627v61.654c0,0,0,3.627,3.621,3.627h29.942c-0.035-0.24-0.041-0.416-0.041-0.416
		v-23.59c0-3.627,3.627-3.627,3.627-3.627h12.703c3.628,0,3.628,3.627,3.628,3.627v23.59c0,0.158-0.047,0.27-0.053,0.416h29.953
		c0,0,3.621,0,3.621-3.627V69.173C114.666,69.173,114.666,65.546,111.045,65.546"/>
	<path fill="#FFFFFF" d="M167.267,104.692v-8.43c0-2.313-1.207-4.349-3.019-5.519c-0.457,1.537-1.867,2.67-3.551,2.67
		s-3.094-1.132-3.552-2.669c-1.813,1.17-3.019,3.205-3.019,5.518v8.43l0,0H167.267z M150.759,121.897l3.263-17.146h-2.374v-8.489
		c0-4.989,4.06-9.049,9.052-9.049c4.987,0,9.049,4.061,9.049,9.049v8.489h-2.373l3.264,17.146h-6.275v5.262
		c0,0.015,0.002,0.027,0.002,0.043v5.576c0,0.921-0.564,1.676-1.256,1.676s-1.257-0.755-1.257-1.676v-5.576
		c0-0.121,0.011-0.239,0.03-0.354v-4.951h-2.48v5.24c0,0.022,0.004,0.042,0.004,0.064v5.576c0,0.921-0.564,1.676-1.256,1.676
		s-1.257-0.755-1.257-1.676v-5.576c0-0.118,0.011-0.234,0.028-0.346v-4.959H150.759z"/>
	<path fill="#FFFFFF" d="M160.789,84.508c1.934,0,3.619-1.067,4.506-2.644c-1.793-0.844-3.312-2.625-4.441-4.341
		c-1.297,0.642-3.195,1.112-4.941,1.112c-0.08,0-0.154-0.008-0.234-0.01c-0.033,0.235-0.055,0.474-0.055,0.715
		C155.623,82.192,157.94,84.508,160.789,84.508 M148.066,80.812c0.09-0.106,0.204-0.271,0.34-0.464
		c0.807-1.137,2.154-3.038,4.141-3.038c0.186,0,0.373,0.016,0.562,0.053c0.104,0.02,0.184,0.057,0.279,0.083
		c0.848-3.301,3.84-5.751,7.4-5.751c4.219,0,7.647,3.43,7.647,7.646c0,4.219-3.431,7.648-7.647,7.648
		c-2.839,0-5.316-1.559-6.635-3.862c-0.615,0.39-1.386,0.609-2.296,0.609c-1.328,0-2.79-0.462-3.636-1.152l-0.992-0.806
		L148.066,80.812z"/>
	<path fill="#FFFFFF" d="M131.377,77.293l7.439-3.021c0.988,0.784,2.13,1.704,3.003,2.412c0.081,0.367,0.126,0.747,0.126,1.137
		c0,2.921-2.376,5.297-5.297,5.297c-2.922,0-5.298-2.377-5.298-5.297C131.351,77.643,131.359,77.467,131.377,77.293 M136.648,85.66
		c4.322,0,7.84-3.517,7.84-7.84s-3.518-7.839-7.84-7.839c-4.324,0-7.84,3.516-7.84,7.839S132.324,85.66,136.648,85.66"/>
	<path fill="#FFFFFF" d="M123.503,114.252l0.438-1.2h2.867l0.387,1.2H123.503z M141.523,87.46l-3.381,8.413l-1.012-7.305
		l0.936-1.655h-2.914l0.936,1.655l-0.999,7.204l-3.376-8.275c-2.97,1.715-4.979,4.917-4.979,8.587v14.198h1.271h1.27h0.5v3.97
		h-0.801l-0.74-2.308c-0.113-0.352-0.439-0.587-0.809-0.587h-4.078c-0.357,0-0.675,0.221-0.797,0.557l-0.852,2.338h-3.366v9.306
		h11.444v4.941v4.192c0,0.921,0.754,1.676,1.677,1.676h2.929c0.922,0,1.678-0.755,1.678-1.676v-4.192v-8.648v-5.6h1.18v14.248h0.023
		v4.192c0,0.921,0.756,1.676,1.676,1.676h2.931c0.922,0,1.677-0.755,1.677-1.676v-12.841c0-0.082-0.014-0.162-0.025-0.241v-9.327
		h0.5h1.271h1.272V96.084C146.564,92.388,144.527,89.165,141.523,87.46"/>
	<path fill="#FFFFFF" d="M188.47,123.557v4.943v4.19c0,0.923-0.642,1.677-1.424,1.677c-0.783,0-1.425-0.754-1.425-1.677v-4.19
		v-4.943v-3.938h2.849V123.557z"/>
	<path fill="#FFFFFF" d="M182.292,128.499L182.292,128.499v4.191c0,0.922-0.642,1.677-1.425,1.677c-0.782,0-1.424-0.755-1.424-1.677
		v-4.191l0,0v-8.882h2.849V128.499z"/>
	<path fill="#FFFFFF" d="M191.359,114.689h4.012v-4.116l-4.012-3.039V114.689z M195.371,105.038H192.8l2.571,1.949V105.038z
		 M183.957,101.711c1.715,0,3.291,0.594,4.543,1.581v-1.112h9.73v15.368h-6.91v2.069h-2.849v-10.544
		c0-2.487-2.026-4.515-4.515-4.515s-4.514,2.027-4.514,4.515v10.544h-2.848v-10.544
		C176.596,105.014,179.897,101.711,183.957,101.711"/>
	<path fill="#FFFFFF" d="M181.939,92.717l-0.901,0.376c-0.373,0.557-0.592,1.226-0.592,1.946c0,1.935,1.573,3.511,3.51,3.511
		c1.293,0,2.413-0.712,3.022-1.756C185.154,96.155,183.109,94.436,181.939,92.717 M183.956,101.397
		c-3.507,0-6.358-2.853-6.358-6.357c0-3.506,2.852-6.358,6.358-6.358s6.358,2.853,6.358,6.358
		C190.316,98.545,187.463,101.397,183.956,101.397"/>
</g>
</svg>
