<?xml version="1.0" encoding="utf-8"?>
<!-- Generator: Adobe Illustrator 16.0.0, SVG Export Plug-In . SVG Version: 6.00 Build 0)  -->
<!DOCTYPE svg PUBLIC "-//W3C//DTD SVG 1.1//EN" "http://www.w3.org/Graphics/SVG/1.1/DTD/svg11.dtd">
<svg version="1.1" id="Calque_1" xmlns="http://www.w3.org/2000/svg" xmlns:xlink="http://www.w3.org/1999/xlink" x="0px" y="0px"
	 width="213.333px" height="200px" viewBox="0 0 213.333 200" enable-background="new 0 0 213.333 200" xml:space="preserve">
<g>
	<path fill="#FFFFFF" d="M130.824,100.956h-1.146H128.4h-9.957h-1.277h-1.148V86.698c0-4.082,3.322-7.403,7.402-7.403
		c4.084,0,7.404,3.321,7.404,7.403V100.956z M123.422,76.741c-5.49,0-9.957,4.468-9.957,9.957v14.258h2.547v7.073
		c-0.031,0.126-0.053,0.256-0.053,0.393v15.058c0,0.922,0.756,1.677,1.676,1.677h3.309c0.92,0,1.676-0.755,1.676-1.677v-4.191
		v-10.866v-2.276h1.605v2.11c-0.006,0.054-0.018,0.107-0.018,0.166v15.058c0,0.922,0.756,1.677,1.676,1.677h3.309
		c0.922,0,1.676-0.755,1.676-1.677v-15.058c0-0.104-0.012-0.201-0.031-0.299v-7.167h2.543V86.698
		C133.379,81.208,128.912,76.741,123.422,76.741"/>
	<path fill="#FFFFFF" d="M118.158,67.632l7.934-2.717c0.832,0.662,1.715,1.375,2.436,1.958c0.137,0.471,0.215,0.969,0.215,1.484
		c0,2.934-2.385,5.32-5.32,5.32c-2.934,0-5.32-2.387-5.32-5.319C118.102,68.111,118.125,67.87,118.158,67.632 M123.422,76.232
		c4.342,0,7.873-3.532,7.873-7.874c0-4.341-3.531-7.873-7.873-7.873s-7.875,3.532-7.875,7.873
		C115.547,72.7,119.08,76.232,123.422,76.232"/>
	<path fill="#FFFFFF" d="M140.652,119.289h0.02v4.19c0,0.922,0.566,1.678,1.258,1.678s1.256-0.756,1.256-1.678v-4.19h0.02v-7.416
		h-2.553V119.289z"/>
	<path fill="#FFFFFF" d="M146.191,119.289h0.02v4.19c0,0.922,0.566,1.678,1.258,1.678c0.689,0,1.256-0.756,1.256-1.678v-4.19h0.02
		v-7.416h-2.553V119.289z"/>
	<path fill="#FFFFFF" d="M144.699,95.876c-3.641,0-6.602,2.962-6.602,6.602v9.396h2.553v-9.397c0-2.232,1.816-4.048,4.049-4.048
		c2.23,0,4.047,1.816,4.047,4.048v9.396h2.553v-9.396C151.299,98.838,148.338,95.876,144.699,95.876"/>
	<path fill="#FFFFFF" d="M141.967,88.359l1.336-1.027c1.193,1.029,3.01,1.894,4.492,2.048c0.029,0.168,0.051,0.338,0.051,0.514
		c0,1.735-1.412,3.148-3.146,3.148c-1.736,0-3.148-1.412-3.148-3.148C141.551,89.335,141.711,88.815,141.967,88.359 M144.699,95.595
		c3.143,0,5.701-2.557,5.701-5.701c0-3.143-2.557-5.701-5.701-5.701s-5.701,2.559-5.701,5.701
		C138.998,93.038,141.555,95.595,144.699,95.595"/>
	<path fill="#FFFFFF" d="M98.246,73.73c-2.729,0-4.979-2.062-5.285-4.71c1.974-0.191,3.979-1.369,5.343-2.35
		c1.233,1.631,2.901,3.147,4.878,3.712C102.396,72.341,100.481,73.73,98.246,73.73 M106.117,68.411c0-4.342-3.531-7.874-7.873-7.874
		s-7.875,3.532-7.875,7.874v7.874h15.748V68.411z"/>
	<path fill="#FFFFFF" d="M105.457,109.673H91.229l2.398-12.625h9.447L105.457,109.673z M106.383,94.574h1.275v-8.74
		c0-5.137-4.18-9.318-9.317-9.318c-5.14,0-9.319,4.182-9.319,9.318v8.74h1.277h1.198l-3.353,17.652h6.424v7.062h0.017v4.191
		c0,0.922,0.565,1.676,1.256,1.676s1.257-0.754,1.257-1.676v-4.191h0.024v-7.062h2.554v5.549c-0.002,0.044-0.01,0.085-0.01,0.13
		v5.575c0,0.922,0.566,1.676,1.257,1.676s1.256-0.754,1.256-1.676v-4.191h0.05v-7.062h6.309l-3.33-17.652H106.383z"/>
	<path fill="#FFFFFF" d="M71.898,93.796c0-0.213-0.097-1.4-1.441-1.44c-1.475-0.045-2.264,2.251-2.645,2.864
		C68.875,95.83,71.898,95.899,71.898,93.796"/>
	<path fill="#FFFFFF" d="M71.907,113.706l1.687-6.511l0.053-5.772c0-1.65,1.344-2.994,2.994-2.994s2.993,1.344,2.993,2.994
		l0.003,5.333l1.737,6.95H71.907z M84.673,116.259l-2.485-9.592v-5.243c0-3.06-2.487-5.548-5.547-5.548s-5.548,2.49-5.548,5.548
		l0.003,5.182l-2.488,9.653h3.986v3.03h0.04v4.191c0,0.922,0.566,1.676,1.257,1.676c0.691,0,1.258-0.754,1.258-1.676v-4.191v-1.385
		v-1.646h2.984v3.03h0.055v4.191c0,0.922,0.564,1.676,1.256,1.676c0.69,0,1.257-0.754,1.257-1.676v-5.576
		c0-0.06-0.009-0.114-0.015-0.172v-1.474H84.673z"/>
	<path fill="#FFFFFF" d="M73.504,89.782c0.811-0.314,2.043-0.92,2.994-1.942c0.791,0.73,1.934,1.383,3.231,1.465
		c0.037,0.191,0.06,0.388,0.06,0.589c0,1.735-1.412,3.148-3.147,3.148s-3.149-1.412-3.149-3.148
		C73.492,89.855,73.504,89.82,73.504,89.782 M76.642,95.595c3.143,0,5.7-2.557,5.7-5.701c0-3.143-2.558-5.701-5.7-5.701
		c-3.144,0-5.702,2.559-5.702,5.701C70.939,93.038,73.496,95.595,76.642,95.595"/>
	<path fill="#FFFFFF" d="M61.901,121.105c-0.271,0.24-0.519,0.518-0.704,0.86c-0.064,0.121-0.086,0.251-0.135,0.376
		c-0.57,0.609-1.366,0.846-2.254,0.846c-0.908,0-1.708-0.259-2.277-0.892c-0.041-0.102-0.055-0.209-0.107-0.308
		c-0.18-0.343-0.422-0.622-0.687-0.865c-0.022-0.172-0.051-0.342-0.051-0.521c0-1.995,1.401-3.613,3.13-3.613s3.13,1.618,3.13,3.613
		C61.946,120.774,61.922,120.939,61.901,121.105 M60.582,113.784c0,0.789-0.795,1.428-1.775,1.428s-1.776-0.639-1.776-1.428
		s0.796-1.429,1.776-1.429S60.582,112.995,60.582,113.784 M63.471,120.431c-0.094,0-0.188,0.032-0.281,0.047
		c0.045-0.291,0.102-0.577,0.102-0.883c0-0.079-0.01-0.155-0.013-0.233c0.841-0.232,1.318-1.251,1.062-2.305
		c-0.225-0.928-0.95-1.6-1.723-1.6c-0.107,0-0.215,0.014-0.318,0.038c-0.203,0.05-0.387,0.155-0.549,0.292
		c-0.221-0.221-0.435-0.452-0.689-0.622c1.249-0.642,2.082-1.8,2.082-3.121c0-0.465-0.113-0.904-0.301-1.312
		c0.313-0.085,0.592-0.232,0.761-0.494c0.428-0.667,0.124-1.598-0.69-2.122c-0.33-0.211-0.707-0.327-1.066-0.327
		c-0.494,0-0.913,0.212-1.151,0.583c-0.067,0.106-0.087,0.228-0.118,0.344c-0.545-0.207-1.145-0.327-1.781-0.327
		c-0.623,0-1.213,0.114-1.75,0.313c-0.032-0.119-0.049-0.244-0.117-0.348c-0.238-0.363-0.653-0.57-1.139-0.57
		c-0.365,0-0.748,0.12-1.08,0.338c-0.355,0.234-0.627,0.562-0.767,0.922c-0.163,0.424-0.127,0.864,0.099,1.207
		c0.16,0.245,0.42,0.388,0.711,0.475c-0.189,0.409-0.303,0.853-0.303,1.319c0,1.321,0.832,2.479,2.081,3.121
		c-0.252,0.169-0.465,0.397-0.683,0.616c-0.155-0.126-0.323-0.232-0.514-0.28c-0.107-0.027-0.219-0.042-0.332-0.042
		c-0.778,0-1.488,0.649-1.727,1.579c-0.127,0.496-0.098,1.006,0.082,1.436c0.189,0.448,0.538,0.764,0.955,0.883
		c-0.003,0.08-0.014,0.158-0.014,0.238c0,0.302,0.057,0.586,0.101,0.873c-0.084-0.011-0.167-0.043-0.252-0.043
		c-0.295,0-0.571,0.068-0.825,0.2c-0.523,0.274-0.869,0.787-0.979,1.443c-0.102,0.61,0.018,1.278,0.335,1.884
		c0.497,0.949,1.392,1.562,2.276,1.562c0.295,0,0.572-0.067,0.825-0.2c0.454-0.237,0.742-0.678,0.892-1.214
		c0.634,0.39,1.354,0.621,2.123,0.621c0.776,0,1.5-0.235,2.138-0.63c0.144,0.529,0.425,0.969,0.87,1.208
		c0.258,0.14,0.543,0.21,0.845,0.21c0.878,0,1.771-0.603,2.272-1.536c0.326-0.602,0.451-1.27,0.357-1.879
		c-0.102-0.658-0.443-1.176-0.962-1.454C64.058,120.501,63.772,120.431,63.471,120.431"/>
</g>
</svg>
