<?xml version="1.0" encoding="utf-8"?>
<!-- Generator: Adobe Illustrator 16.0.0, SVG Export Plug-In . SVG Version: 6.00 Build 0)  -->
<!DOCTYPE svg PUBLIC "-//W3C//DTD SVG 1.1//EN" "http://www.w3.org/Graphics/SVG/1.1/DTD/svg11.dtd">
<svg version="1.1" id="Calque_1" xmlns="http://www.w3.org/2000/svg" xmlns:xlink="http://www.w3.org/1999/xlink" x="0px" y="0px"
	 width="213.333px" height="200px" viewBox="0 0 213.333 200" enable-background="new 0 0 213.333 200" xml:space="preserve">
<g>
	<path fill="#FFFFFF" d="M136.893,121.127H76.439V82.256l27.866,22.664c0.69,0.561,1.526,0.842,2.361,0.842s1.671-0.281,2.36-0.842
		l27.865-22.664V121.127z M128.957,78.874l-22.29,18.127l-22.29-18.127H128.957z M144.449,76.11l-0.027-0.021
		c-0.271-2.741-2.564-4.898-5.328-4.898H74.238c-2.765,0-5.057,2.157-5.328,4.897l-0.027,0.022l0.025,0.021
		c-0.016,0.166-0.025,0.335-0.025,0.504v46.73c0,2.993,2.409,5.443,5.355,5.443h64.855c2.947,0,5.355-2.45,5.355-5.443v-46.73
		c0-0.169-0.01-0.338-0.025-0.504L144.449,76.11z"/>
</g>
</svg>
