<?xml version="1.0" encoding="utf-8"?>
<!-- Generator: Adobe Illustrator 16.0.0, SVG Export Plug-In . SVG Version: 6.00 Build 0)  -->
<!DOCTYPE svg PUBLIC "-//W3C//DTD SVG 1.1//EN" "http://www.w3.org/Graphics/SVG/1.1/DTD/svg11.dtd">
<svg version="1.1" id="Calque_1" xmlns="http://www.w3.org/2000/svg" xmlns:xlink="http://www.w3.org/1999/xlink" x="0px" y="0px"
	 width="213.333px" height="200px" viewBox="0 0 213.333 200" enable-background="new 0 0 213.333 200" xml:space="preserve">
<path fill="#FFFFFF" d="M166.185,72.98c-0.003-0.088-0.007-0.175-0.013-0.263c-0.046-0.697-0.184-1.379-0.405-2.033
	c-0.024-0.076-0.053-0.15-0.079-0.225c-0.121-0.327-0.259-0.648-0.422-0.956c-0.166-0.314-0.359-0.613-0.566-0.903
	c-0.045-0.061-0.088-0.121-0.135-0.181c-0.218-0.286-0.447-0.563-0.703-0.82l-17.067-17.101c-1.5-1.504-3.537-2.349-5.662-2.349
	h-30.559c-4.418,0-8,3.582-8,8v4.992h-4.992c-4.418,0-8,3.582-8,8v25.254H50.929c-2.765,0-5.057,2.157-5.328,4.897l-0.027,0.023
	l0.025,0.02c-0.016,0.166-0.025,0.335-0.025,0.504v46.73c0,2.993,2.409,5.443,5.355,5.443h64.855c2.947,0,5.356-2.45,5.356-5.443
	v-5.929h24.066c4.418,0,8-3.582,8-8v-4.992h4.992c4.418,0,8-3.582,8-8V73.25C166.2,73.16,166.19,73.07,166.185,72.98z
	 M89.582,102.078v13.065l-6.224,5.062l-22.29-18.127H89.582z M113.583,144.331H53.13V105.46l27.866,22.664
	c0.69,0.562,1.526,0.842,2.361,0.842s1.671-0.28,2.359-0.842l3.864-3.144v7.66c0,4.418,3.582,8,8,8h16.002V144.331z
	 M145.208,132.641h-24.066h-7.558H97.582v-14.166v-9.836v-6.561v-7.683V69.14h4.992v25.255v7.683v2.5v9.836v5.234
	c0,4.418,3.582,8,8,8h3.01h7.558h24.066V132.641z M158.2,119.648h-4.992h-8h-24.066h-7.558h-3.01v-11.74V94.395V69.14v-7.999v-4.993
	h22.625c-0.001,0.033-0.008,0.064-0.008,0.097v6.694v10.313c0,0.358,0.031,0.708,0.077,1.053c0.472,3.573,3.297,6.398,6.87,6.87
	c0.346,0.045,0.695,0.077,1.054,0.077h10.245h6.763V119.648z M143.545,73.253h-2.354v-2.358V56.245L158.2,73.253H143.545z"/>
</svg>
