<?xml version="1.0" encoding="UTF-8"?>
<!-- Generator: Adobe Illustrator 15.0.2, SVG Export Plug-In . SVG Version: 6.00 Build 0)  -->
<!DOCTYPE svg PUBLIC "-//W3C//DTD SVG 1.1//EN" "http://www.w3.org/Graphics/SVG/1.1/DTD/svg11.dtd">
<svg xmlns="http://www.w3.org/2000/svg" xmlns:xlink="http://www.w3.org/1999/xlink" version="1.1" id="Layer_1" x="0px" y="0px" width="512px" height="597.333px" viewBox="0 0 512 597.333" enable-background="new 0 0 512 597.333" xml:space="preserve">
<path d="M455.111,241.777H270.223V56.889H56.889v483.556h398.223V241.777z M512,597.333H0V0h330.667L512,181.333V597.333z   M327.111,74.667v110.222h110.222L327.111,74.667z M156.444,512V398.223h42.667c23.562,0,42.666,12,42.666,35.555  c0,23.556-19.104,35.556-42.666,35.556h-14.223V512H156.444z M199.111,440.889c7.854,0,14.222,0.75,14.222-7.111  c0-7.86-6.368-7.11-14.222-7.11h-14.223v14.222H199.111z M355.556,512V398.223h71.111v28.444H384v14.222h28.444v28.444H384V512  H355.556z M256,398.223h42.667c23.556,0,42.666,19.11,42.666,42.666v28.444c0,23.556-19.11,42.667-42.666,42.667H256V398.223z   M312.889,469.333v-28.444c0-7.861-6.361-14.222-14.222-14.222h-14.223v56.889h14.223  C306.527,483.556,312.889,477.194,312.889,469.333z" fill="#FFFFFF"/>
</svg>
