<?xml version="1.0" encoding="utf-8"?>
<!-- Generator: Adobe Illustrator 16.0.0, SVG Export Plug-In . SVG Version: 6.00 Build 0)  -->
<!DOCTYPE svg PUBLIC "-//W3C//DTD SVG 1.1//EN" "http://www.w3.org/Graphics/SVG/1.1/DTD/svg11.dtd">
<svg version="1.1" id="Calque_1" xmlns="http://www.w3.org/2000/svg" xmlns:xlink="http://www.w3.org/1999/xlink" x="0px" y="0px"
	 width="213.333px" height="200px" viewBox="0 0 213.333 200" enable-background="new 0 0 213.333 200" xml:space="preserve">
<g>
	<path fill="#FFFFFF" d="M124.182,94.287c0,1.816-1.816,1.816-1.816,1.816H111.49c-1.811,0-1.811-1.816-1.811-1.816V83.418
		c0-1.812,1.811-1.812,1.811-1.812h10.875c1.816,0,1.816,1.812,1.816,1.812V94.287z M124.182,119.512
		c0,1.817-1.816,1.817-1.816,1.817H111.49c-1.811,0-1.811-1.817-1.811-1.817v-10.875c0-1.815,1.811-1.815,1.811-1.815h10.875
		c1.816,0,1.816,1.815,1.816,1.815V119.512z M97.973,94.287c0,1.816-1.816,1.816-1.816,1.816H85.28
		c-1.815,0-1.815-1.816-1.815-1.816V83.418c0-1.812,1.815-1.812,1.815-1.812h10.876c1.816,0,1.816,1.812,1.816,1.812V94.287z
		 M71.762,94.287c0,1.816-1.815,1.816-1.815,1.816h-10.87c-1.822,0-1.822-1.816-1.822-1.816V83.418c0-1.812,1.822-1.812,1.822-1.812
		h10.87c1.815,0,1.815,1.812,1.815,1.812V94.287z M71.762,119.512c0,1.817-1.815,1.817-1.815,1.817h-10.87
		c-1.822,0-1.822-1.817-1.822-1.817v-10.875c0-1.815,1.822-1.815,1.822-1.815h10.87c1.815,0,1.815,1.815,1.815,1.815V119.512z
		 M130.598,65.546h-79.76c0,0-3.621,0-3.621,3.627v61.654c0,0,0,3.627,3.621,3.627H80.78c-0.035-0.24-0.041-0.416-0.041-0.416
		v-23.59c0-3.627,3.627-3.627,3.627-3.627h12.703c3.628,0,3.628,3.627,3.628,3.627v23.59c0,0.158-0.047,0.27-0.053,0.416h29.953
		c0,0,3.621,0,3.621-3.627V69.173C134.219,69.173,134.219,65.546,130.598,65.546"/>
	<path fill="#FFFFFF" d="M150.93,77.293l7.439-3.021c0.988,0.784,2.13,1.704,3.003,2.412c0.081,0.367,0.126,0.747,0.126,1.137
		c0,2.921-2.376,5.297-5.297,5.297c-2.922,0-5.298-2.377-5.298-5.297C150.903,77.643,150.912,77.467,150.93,77.293 M156.201,85.66
		c4.322,0,7.84-3.517,7.84-7.84s-3.518-7.839-7.84-7.839c-4.324,0-7.84,3.516-7.84,7.839S151.877,85.66,156.201,85.66"/>
	<path fill="#FFFFFF" d="M143.056,114.252l0.438-1.2h2.867l0.387,1.2H143.056z M161.076,87.46l-3.381,8.413l-1.012-7.305
		l0.936-1.655h-2.914l0.936,1.655l-0.999,7.204l-3.376-8.275c-2.97,1.715-4.979,4.917-4.979,8.587v14.198h1.271h1.27h0.5v3.97
		h-0.801l-0.74-2.308c-0.113-0.352-0.439-0.587-0.809-0.587H142.9c-0.357,0-0.675,0.221-0.797,0.557l-0.852,2.338h-3.366v9.306
		h11.444v4.941v4.192c0,0.921,0.754,1.676,1.677,1.676h2.929c0.922,0,1.678-0.755,1.678-1.676v-4.192v-8.648v-5.6h1.18v14.248h0.023
		v4.192c0,0.921,0.756,1.676,1.676,1.676h2.931c0.922,0,1.677-0.755,1.677-1.676v-12.841c0-0.082-0.014-0.162-0.025-0.241v-9.327
		h0.5h1.271h1.272V96.084C166.117,92.388,164.08,89.165,161.076,87.46"/>
</g>
</svg>
