<?xml version="1.0" encoding="utf-8"?>
<!-- Generator: Adobe Illustrator 16.0.0, SVG Export Plug-In . SVG Version: 6.00 Build 0)  -->
<!DOCTYPE svg PUBLIC "-//W3C//DTD SVG 1.1//EN" "http://www.w3.org/Graphics/SVG/1.1/DTD/svg11.dtd">
<svg version="1.1" id="Calque_1" xmlns="http://www.w3.org/2000/svg" xmlns:xlink="http://www.w3.org/1999/xlink" x="0px" y="0px"
	 width="213.333px" height="200px" viewBox="0 0 213.333 200" enable-background="new 0 0 213.333 200" xml:space="preserve">
<g>
	<g>
		<path fill="#FFFFFF" d="M126.65,94.841v-8.43c0-2.313,1.206-4.349,3.019-5.519c0.457,1.537,1.867,2.67,3.551,2.67
			s3.094-1.132,3.551-2.669c1.813,1.17,3.02,3.205,3.02,5.518v8.43h-0.001H126.65z M143.158,112.046L139.896,94.9h2.373v-8.489
			c0-4.989-4.06-9.049-9.051-9.049c-4.988,0-9.049,4.061-9.049,9.049V94.9h2.373l-3.264,17.146h6.275v5.262
			c0,0.015-0.002,0.027-0.002,0.043v5.576c0,0.921,0.564,1.676,1.256,1.676c0.69,0,1.256-0.755,1.256-1.676v-5.576
			c0-0.121-0.01-0.239-0.029-0.354v-4.951h2.48v5.24c0,0.022-0.004,0.042-0.004,0.064v5.576c0,0.921,0.564,1.676,1.256,1.676
			c0.69,0,1.256-0.755,1.256-1.676v-5.576c0-0.118-0.01-0.234-0.027-0.346v-4.959H143.158z"/>
		<path fill="#FFFFFF" d="M133.128,74.656c-1.934,0-3.619-1.067-4.506-2.644c1.793-0.844,3.312-2.625,4.441-4.341
			c1.297,0.642,3.195,1.112,4.941,1.112c0.08,0,0.154-0.008,0.234-0.01c0.033,0.235,0.055,0.474,0.055,0.715
			C138.294,72.341,135.977,74.656,133.128,74.656 M145.851,70.961c-0.09-0.106-0.204-0.271-0.34-0.464
			c-0.807-1.137-2.154-3.038-4.141-3.038c-0.186,0-0.373,0.016-0.562,0.053c-0.104,0.02-0.184,0.057-0.28,0.083
			c-0.847-3.301-3.839-5.751-7.399-5.751c-4.219,0-7.647,3.43-7.647,7.646c0,4.219,3.431,7.648,7.647,7.648
			c2.838,0,5.315-1.559,6.635-3.862c0.615,0.39,1.386,0.609,2.296,0.609c1.327,0,2.79-0.462,3.636-1.152l0.992-0.806L145.851,70.961
			z"/>
		<path fill="#FFFFFF" d="M116.787,100.402h-1.146h-1.277h-9.96h-1.276h-1.147V86.145c0-4.082,3.321-7.404,7.402-7.404
			c4.084,0,7.404,3.322,7.404,7.404V100.402z M109.385,76.188c-5.49,0-9.957,4.468-9.957,9.957v14.258h2.547v9.538
			c-0.006,0.048-0.016,0.095-0.016,0.146v12.84c0,0.922,0.755,1.677,1.676,1.677h3.27c0.922,0,1.677-0.755,1.677-1.677v-4.191
			v-8.648v-4.494h1.605v4.492v0.002v2.078v6.57v4.191c0,0.922,0.754,1.677,1.676,1.677h3.261c0.922,0,1.677-0.755,1.677-1.677
			v-4.191v-8.648v-9.684h2.542V86.145C119.342,80.654,114.876,76.188,109.385,76.188"/>
		<path fill="#FFFFFF" d="M104.12,67.078l7.936-2.717c0.831,0.662,1.713,1.375,2.434,1.958c0.138,0.471,0.215,0.969,0.215,1.483
			c0,2.935-2.385,5.321-5.319,5.321c-2.934,0-5.32-2.387-5.32-5.32C104.064,67.558,104.087,67.316,104.12,67.078 M109.385,75.678
			c4.343,0,7.873-3.531,7.873-7.874c0-4.34-3.53-7.873-7.873-7.873c-4.342,0-7.875,3.533-7.875,7.873
			C101.51,72.146,105.043,75.678,109.385,75.678"/>
		<path fill="#FFFFFF" d="M79.69,67.529l7.44-3.022c0.988,0.784,2.129,1.704,3.002,2.412c0.082,0.367,0.127,0.747,0.127,1.137
			c0,2.921-2.377,5.297-5.297,5.297c-2.922,0-5.299-2.377-5.299-5.297C79.664,67.878,79.674,67.702,79.69,67.529 M84.963,75.896
			c4.322,0,7.84-3.517,7.84-7.84c0-4.322-3.518-7.839-7.84-7.839c-4.324,0-7.84,3.517-7.84,7.839
			C77.123,72.379,80.639,75.896,84.963,75.896"/>
		<path fill="#FFFFFF" d="M71.817,104.487l0.438-1.2h2.866l0.388,1.2H71.817z M89.838,77.695l-3.381,8.413l-1.012-7.305l0.936-1.655
			h-2.914l0.936,1.655l-0.999,7.204l-3.376-8.275c-2.971,1.715-4.979,4.917-4.979,8.587v14.198h1.271h1.27h0.5v3.97h-0.801
			l-0.74-2.308c-0.113-0.352-0.439-0.587-0.809-0.587h-4.079c-0.356,0-0.674,0.221-0.796,0.557l-0.852,2.338h-3.367v9.307h11.445
			v4.94v4.192c0,0.921,0.754,1.676,1.676,1.676h2.93c0.922,0,1.677-0.755,1.677-1.676v-4.192v-8.648v-5.6h1.181v14.248h0.023v4.192
			c0,0.921,0.755,1.676,1.676,1.676h2.93c0.922,0,1.678-0.755,1.678-1.676v-12.841c0-0.082-0.014-0.162-0.025-0.241v-9.327h0.499
			h1.271h1.272V86.319C94.878,82.624,92.842,79.4,89.838,77.695"/>
	</g>
</g>
</svg>
