<?xml version="1.0" encoding="utf-8"?>
<!-- Generator: Adobe Illustrator 16.0.0, SVG Export Plug-In . SVG Version: 6.00 Build 0)  -->
<!DOCTYPE svg PUBLIC "-//W3C//DTD SVG 1.1//EN" "http://www.w3.org/Graphics/SVG/1.1/DTD/svg11.dtd">
<svg version="1.1" id="Calque_1" xmlns="http://www.w3.org/2000/svg" xmlns:xlink="http://www.w3.org/1999/xlink" x="0px" y="0px"
	 width="213.333px" height="200px" viewBox="0 0 213.333 200" enable-background="new 0 0 213.333 200" xml:space="preserve">
<g>
	<path fill="#FFFFFF" d="M68.628,80.91c-2.729,0-4.979-2.062-5.284-4.71c1.974-0.191,3.978-1.369,5.343-2.35
		c1.232,1.631,2.901,3.147,4.877,3.712C72.778,79.521,70.864,80.91,68.628,80.91 M76.5,75.591c0-4.342-3.531-7.874-7.873-7.874
		s-7.875,3.532-7.875,7.874v7.873H76.5V75.591z"/>
	<path fill="#FFFFFF" d="M75.839,116.853H61.61l2.398-12.625h9.448L75.839,116.853z M76.765,101.754h1.276v-8.74
		c0-5.137-4.18-9.318-9.317-9.318c-5.14,0-9.319,4.182-9.319,9.318v8.74h1.276h1.199l-3.354,17.652h6.425v7.062h0.017v4.19
		c0,0.923,0.564,1.677,1.256,1.677c0.69,0,1.256-0.754,1.256-1.677v-4.19h0.025v-7.062h2.553v5.549
		c-0.002,0.044-0.01,0.085-0.01,0.13v5.574c0,0.923,0.566,1.677,1.258,1.677c0.69,0,1.256-0.754,1.256-1.677v-4.19h0.05v-7.062
		h6.307l-3.329-17.652H76.765z"/>
	<path fill="#FFFFFF" d="M42.28,100.976c0-0.213-0.096-1.4-1.44-1.44c-1.476-0.045-2.265,2.251-2.646,2.864
		C39.257,103.01,42.28,103.079,42.28,100.976"/>
	<path fill="#FFFFFF" d="M42.29,120.886l1.687-6.511l0.053-5.772c0-1.65,1.343-2.994,2.993-2.994s2.994,1.344,2.994,2.994
		l0.002,5.333l1.738,6.95H42.29z M55.056,123.438l-2.485-9.592v-5.243c0-3.06-2.487-5.548-5.548-5.548
		c-3.059,0-5.547,2.49-5.547,5.548l0.003,5.182l-2.489,9.653h3.987v3.03h0.04v4.191c0,0.922,0.566,1.676,1.257,1.676
		s1.257-0.754,1.257-1.676v-4.191v-1.385v-1.646h2.985v3.03h0.054v4.191c0,0.922,0.564,1.676,1.256,1.676s1.258-0.754,1.258-1.676
		v-5.576c0-0.06-0.01-0.114-0.015-0.172v-1.474H55.056z"/>
	<path fill="#FFFFFF" d="M43.887,96.961c0.81-0.313,2.042-0.919,2.993-1.941c0.792,0.73,1.934,1.383,3.232,1.465
		c0.037,0.191,0.059,0.388,0.059,0.589c0,1.735-1.412,3.148-3.146,3.148c-1.736,0-3.149-1.412-3.149-3.148
		C43.875,97.035,43.886,97,43.887,96.961 M47.024,102.774c3.143,0,5.7-2.557,5.7-5.701c0-3.143-2.558-5.701-5.7-5.701
		c-3.144,0-5.703,2.559-5.703,5.701C41.321,100.218,43.879,102.774,47.024,102.774"/>
	<path fill="#FFFFFF" d="M101.58,108.136h-1.146h-1.277h-9.959h-1.277h-1.147V93.878c0-4.082,3.321-7.404,7.403-7.404
		c4.084,0,7.403,3.322,7.403,7.404V108.136z M94.179,83.921c-5.491,0-9.957,4.468-9.957,9.957v14.258h2.545v9.538
		c-0.004,0.048-0.014,0.095-0.014,0.146v12.84c0,0.922,0.754,1.677,1.676,1.677h3.27c0.921,0,1.676-0.755,1.676-1.677v-4.191v-8.648
		v-4.494h1.606l-0.001,4.492v0.002v2.078v6.57v4.191c0,0.922,0.755,1.677,1.677,1.677h3.261c0.922,0,1.676-0.755,1.676-1.677v-4.191
		v-8.648v-9.684h2.543V93.878C104.136,88.388,99.669,83.921,94.179,83.921"/>
	<path fill="#FFFFFF" d="M88.913,74.812l7.936-2.717c0.832,0.662,1.714,1.375,2.435,1.958c0.138,0.471,0.214,0.969,0.214,1.483
		c0,2.935-2.385,5.321-5.318,5.321c-2.935,0-5.321-2.387-5.321-5.32C88.857,75.291,88.88,75.05,88.913,74.812 M94.179,83.411
		c4.342,0,7.873-3.531,7.873-7.874c0-4.34-3.531-7.873-7.873-7.873s-7.875,3.533-7.875,7.873
		C86.304,79.88,89.837,83.411,94.179,83.411"/>
	<path fill="#FFFFFF" d="M122.481,75.263l7.44-3.022c0.988,0.784,2.129,1.704,3.002,2.412c0.082,0.367,0.127,0.747,0.127,1.137
		c0,2.921-2.377,5.297-5.297,5.297c-2.922,0-5.299-2.377-5.299-5.297C122.455,75.611,122.465,75.436,122.481,75.263 M127.754,83.629
		c4.322,0,7.84-3.517,7.84-7.84s-3.518-7.839-7.84-7.839c-4.324,0-7.84,3.516-7.84,7.839S123.43,83.629,127.754,83.629"/>
	<path fill="#FFFFFF" d="M114.607,112.221l0.439-1.2h2.866l0.387,1.2H114.607z M132.628,85.429l-3.38,8.413l-1.012-7.305
		l0.936-1.655h-2.915l0.937,1.655l-1,7.204l-3.375-8.275c-2.971,1.715-4.979,4.917-4.979,8.587v14.198h1.271h1.27h0.5v3.97h-0.801
		l-0.741-2.308c-0.112-0.352-0.438-0.587-0.808-0.587h-4.079c-0.356,0-0.675,0.221-0.796,0.557l-0.852,2.338h-3.366v9.307h11.443
		v4.94v4.192c0,0.921,0.755,1.676,1.677,1.676h2.93c0.922,0,1.677-0.755,1.677-1.676v-4.192v-8.648v-5.6h1.181v14.248h0.023v4.192
		c0,0.921,0.755,1.676,1.676,1.676h2.93c0.922,0,1.678-0.755,1.678-1.676v-12.841c0-0.082-0.014-0.162-0.025-0.241v-9.327h0.499
		h1.271h1.272V94.053C137.669,90.357,135.632,87.134,132.628,85.429"/>
	<path fill="#FFFFFF" d="M175.439,121.525v4.943v4.191c0,0.922-0.641,1.676-1.424,1.676s-1.424-0.754-1.424-1.676v-4.191v-4.943
		v-3.938h2.848V121.525z"/>
	<path fill="#FFFFFF" d="M169.262,126.469L169.262,126.469v4.19c0,0.922-0.641,1.677-1.424,1.677s-1.424-0.755-1.424-1.677v-4.19
		h-0.001v-8.883h2.849V126.469z"/>
	<path fill="#FFFFFF" d="M157.383,96.962c0-0.24,0.107-1.577,1.625-1.625c1.666-0.052,2.555,2.537,2.983,3.229
		C160.794,99.259,157.383,99.336,157.383,96.962"/>
	<path fill="#FFFFFF" d="M145.775,105.564c0-3.45,2.807-6.257,6.258-6.257s6.258,2.807,6.258,6.257l-0.002,5.845l2.807,10.892
		h-4.498v4.167h-0.033v4.191c0,0.922-0.641,1.677-1.424,1.677s-1.424-0.755-1.424-1.677v-6.285c0-0.006,0.002-0.012,0.002-0.019
		v-2.055h-3.369v4.167h-0.02v4.191c0,0.922-0.641,1.677-1.424,1.677s-1.424-0.755-1.424-1.677v-4.191h-0.012v-4.167h-4.498
		l2.803-10.821V105.564z"/>
	<path fill="#FFFFFF" d="M155.569,92.434c-0.913-0.354-2.3-1.035-3.372-2.188c-0.896,0.825-2.186,1.573-3.65,1.664
		c-0.039,0.212-0.063,0.428-0.063,0.65c0,1.958,1.593,3.55,3.55,3.55c1.959,0,3.549-1.593,3.549-3.55
		C155.582,92.518,155.572,92.477,155.569,92.434 M152.033,98.991c-3.546,0-6.431-2.885-6.431-6.431c0-3.545,2.885-6.429,6.431-6.429
		c3.545,0,6.432,2.884,6.432,6.429C158.465,96.106,155.578,98.991,152.033,98.991"/>
	<path fill="#FFFFFF" d="M178.33,112.658h4.012v-4.116l-4.012-3.039V112.658z M182.342,103.008h-2.572l2.572,1.948V103.008z
		 M170.928,99.68c1.715,0,3.291,0.594,4.543,1.581v-1.112h9.73v15.368h-6.911v2.069h-2.849v-10.544c0-2.487-2.025-4.515-4.514-4.515
		s-4.515,2.027-4.515,4.515v10.544h-2.847v-10.544C163.566,102.982,166.868,99.68,170.928,99.68"/>
	<path fill="#FFFFFF" d="M168.909,90.686l-0.901,0.376c-0.373,0.557-0.592,1.227-0.592,1.946c0,1.935,1.574,3.511,3.51,3.511
		c1.293,0,2.414-0.712,3.022-1.756C172.125,94.124,170.08,92.404,168.909,90.686 M170.926,99.366c-3.506,0-6.358-2.853-6.358-6.357
		c0-3.506,2.853-6.358,6.358-6.358c3.508,0,6.358,2.853,6.358,6.358C177.287,96.514,174.434,99.366,170.926,99.366"/>
</g>
</svg>
